<?xml version="1.0" encoding="UTF-8"?> <svg xmlns="http://www.w3.org/2000/svg" xmlns:xlink="http://www.w3.org/1999/xlink" width="60px" height="60px" viewBox="0 0 60 60" version="1.1"><title>FEATURES/integratedprodmodel/01</title><defs><filter id="filter-1"><feColorMatrix in="SourceGraphic" type="matrix" values="0 0 0 0 0.000000 0 0 0 0 1.000000 0 0 0 0 0.703016 0 0 0 1.000000 0"></feColorMatrix></filter><polygon id="path-2" points="0 0.810277778 39.3796296 0.810277778 39.3796296 24.0740741 0 24.0740741"></polygon></defs><g id="FEATURES/integratedprodmodel/01" stroke="none" stroke-width="1" fill="none" fill-rule="evenodd"><g filter="url(#filter-1)" id="Group-48"><g transform="translate(11.000000, 5.000000)"><g id="Group-3" transform="translate(0.000000, 25.590648)"><mask id="mask-3" fill="white"><use xlink:href="#path-2"></use></mask><g id="Clip-2"></g><path d="M33.5403704,20.3260185 C33.5403704,21.3713889 32.6903704,22.2223148 31.6440741,22.2223148 L8.15888889,22.2223148 C7.11259259,22.2223148 6.26259259,21.3713889 6.26259259,20.3260185 L6.26259259,8.84083333 L19.2885185,8.84083333 L21.5422222,5.08157407 L21.5422222,20.5630556 C21.5422222,21.0750926 21.9561111,21.4889815 22.4681481,21.4889815 C22.9792593,21.4889815 23.3940741,21.0750926 23.3940741,20.5630556 L23.3940741,5.08157407 L25.6468519,8.84083333 L33.5403704,8.84083333 L33.5403704,20.3260185 Z M5.86259259,2.66212963 L20.832963,2.66212963 L18.2394444,6.98898148 L3.26907407,6.98898148 L5.86259259,2.66212963 Z M33.5172222,2.66212963 L36.1107407,6.98898148 L26.6959259,6.98898148 L24.1024074,2.66212963 L33.5172222,2.66212963 Z M39.3801852,8.84083333 L34.5662963,0.810277778 L24.1024074,0.810277778 L20.832963,0.810277778 L4.81351852,0.810277778 L-0.00037037037,8.84083333 L4.41074074,8.84083333 L4.41074074,20.3260185 C4.41074074,22.3926852 6.0912963,24.0741667 8.15888889,24.0741667 L31.6440741,24.0741667 C33.7107407,24.0741667 35.3922222,22.3926852 35.3922222,20.3260185 L35.3922222,8.84083333 L39.3801852,8.84083333 Z" id="Fill-1" fill="#010202" mask="url(#mask-3)"></path></g><path d="M12.9769444,44.3017593 L8.73342593,44.3017593 C8.22231481,44.3017593 7.8075,44.7156481 7.8075,45.2276852 C7.8075,45.7397222 8.22231481,46.1536111 8.73342593,46.1536111 L12.9769444,46.1536111 C13.4880556,46.1536111 13.9028704,45.7397222 13.9028704,45.2276852 C13.9028704,44.7156481 13.4880556,44.3017593 12.9769444,44.3017593" id="Fill-4" fill="#010202"></path><path d="M4.33759259,20.4401852 L2.79962963,21.9874074 C2.49314815,22.2948148 2.49407407,22.792963 2.80240741,23.0994444 C2.95611111,23.2522222 3.15703704,23.3290741 3.35703704,23.3290741 C3.55981481,23.3290741 3.76166667,23.2512963 3.91537037,23.0966667 L5.45333333,21.5494444 L6.99962963,23.0874074 C7.15333333,23.2401852 7.35425926,23.317037 7.55518519,23.317037 C7.75703704,23.317037 7.95888889,23.2392593 8.11259259,23.0846296 C8.41907407,22.7762963 8.41814815,22.2781481 8.10981481,21.9716667 L6.56259259,20.4337037 L8.10055556,18.8874074 C8.40796296,18.5790741 8.40611111,18.0809259 8.09777778,17.7744444 C7.79037037,17.4688889 7.29222222,17.4688889 6.98481481,17.7781481 L5.44685185,19.3244444 L3.90055556,17.7864815 C3.59314815,17.4809259 3.095,17.4809259 2.78759259,17.7901852 C2.48111111,18.0975926 2.48296296,18.5957407 2.7912963,18.9022222 L4.33759259,20.4401852 Z" id="Fill-6" fill="#010202"></path><path d="M34.3497222,19.1778704 L32.8025,17.6399074 C32.4960185,17.3343519 31.9969444,17.3343519 31.690463,17.6436111 C31.3839815,17.9510185 31.3849074,18.4491667 31.6932407,18.7556481 L33.240463,20.2936111 L31.7025,21.8408333 C31.3960185,22.1482407 31.3969444,22.6463889 31.7052778,22.9528704 C31.8589815,23.1056481 32.0589815,23.1825 32.2599074,23.1825 C32.4617593,23.1825 32.664537,23.1047222 32.8182407,22.9500926 L34.3552778,21.4028704 L35.9025,22.9408333 C36.0562037,23.0936111 36.2571296,23.170463 36.4571296,23.170463 C36.6589815,23.170463 36.8617593,23.0936111 37.015463,22.9389815 C37.3219444,22.6306481 37.3200926,22.1315741 37.0117593,21.8250926 L35.465463,20.2871296 L37.0034259,18.7408333 C37.3099074,18.4325 37.3080556,17.9343519 36.9997222,17.6278704 C36.6932407,17.3223148 36.1941667,17.3223148 35.8876852,17.6315741 L34.3497222,19.1778704 Z" id="Fill-8" fill="#010202"></path><path d="M17.3385185,5.36222222 L19.207963,1.57425926 L21.0774074,5.36222222 L25.257963,5.96962963 L22.232963,8.9187037 L22.9477778,13.0816667 L19.207963,11.1159259 L15.4690741,13.0816667 L16.182963,8.9187037 L13.157963,5.96962963 L17.3385185,5.36222222 Z M14.4922222,9.46777778 L13.9181481,12.8159259 C13.8162963,13.4066667 14.0588889,14.002963 14.5440741,14.3557407 C14.8181481,14.5548148 15.1431481,14.6557407 15.4690741,14.6557407 C15.72,14.6557407 15.9709259,14.5964815 16.2014815,14.4751852 L19.207963,12.8946296 L22.2153704,14.4751852 C22.445,14.5964815 22.6968519,14.6557407 22.9468519,14.6557407 C23.2737037,14.6557407 23.5987037,14.5548148 23.8727778,14.3557407 C24.357037,14.002963 24.5996296,13.4066667 24.4987037,12.8159259 L23.9246296,9.46777778 L26.357037,7.09648148 C26.7857407,6.67888889 26.9403704,6.05296296 26.7551852,5.48351852 C26.57,4.91407407 26.0774074,4.49740741 25.4848148,4.41222222 L22.1227778,3.92333333 L20.6190741,0.877037037 C20.3542593,0.34 19.807963,0.000185185185 19.207963,0.000185185185 C18.6088889,0.000185185185 18.0616667,0.34 17.7968519,0.877037037 L16.2931481,3.92333333 L12.932037,4.41222222 C12.3394444,4.49740741 11.8459259,4.91407407 11.6607407,5.48351852 C11.4755556,6.05296296 11.6301852,6.67888889 12.0598148,7.09648148 L14.4922222,9.46777778 Z" id="Fill-10" fill="#010202"></path><path d="M19.2084259,14.6558333 C18.6973148,14.6558333 18.2825,15.0697222 18.2825,15.5817593 L18.2825,15.6437963 C18.2825,16.1558333 18.6973148,16.5391667 19.2084259,16.5391667 C19.719537,16.5391667 20.1343519,16.0937963 20.1343519,15.5817593 C20.1343519,15.0697222 19.719537,14.6558333 19.2084259,14.6558333" id="Fill-12" fill="#010202"></path><path d="M19.2084259,17.4960185 C18.6973148,17.4960185 18.2825,17.9099074 18.2825,18.4219444 L18.2825,18.514537 C18.2825,19.0256481 18.6973148,19.3941667 19.2084259,19.3941667 C19.719537,19.3941667 20.1343519,18.9339815 20.1343519,18.4219444 C20.1343519,17.9099074 19.719537,17.4960185 19.2084259,17.4960185" id="Fill-14" fill="#010202"></path><path d="M20.1343519,21.2919444 C20.1343519,20.7799074 19.719537,20.3660185 19.2084259,20.3660185 C18.6973148,20.3660185 18.2825,20.7799074 18.2825,21.2919444 L18.2825,21.385463 C18.2825,21.8965741 18.6973148,22.3113889 19.2084259,22.3113889 C19.719537,22.3113889 20.1343519,21.8965741 20.1343519,21.385463 L20.1343519,21.2919444 Z" id="Fill-16" fill="#010202"></path><path d="M19.2084259,23.2369444 C18.6973148,23.2369444 18.2825,23.6508333 18.2825,24.1628704 L18.2825,24.255463 C18.2825,24.7665741 18.6973148,25.1350926 19.2084259,25.1350926 C19.719537,25.1350926 20.1343519,24.6749074 20.1343519,24.1628704 C20.1343519,23.6508333 19.719537,23.2369444 19.2084259,23.2369444" id="Fill-18" fill="#010202"></path><path d="M5.29833333,8.78472222 C5.86407407,8.78472222 6.32518519,9.24583333 6.32518519,9.81157407 C6.32518519,10.3782407 5.86407407,10.8393519 5.29833333,10.8393519 C4.73259259,10.8393519 4.27148148,10.3782407 4.27148148,9.81157407 C4.27148148,9.24583333 4.73259259,8.78472222 5.29833333,8.78472222 M5.29833333,12.4125 C6.73259259,12.4125 7.89925926,11.2458333 7.89925926,9.81157407 C7.89925926,8.37824074 6.73259259,7.21157407 5.29833333,7.21157407 C3.86407407,7.21157407 2.69740741,8.37824074 2.69740741,9.81157407 C2.69740741,11.2458333 3.86407407,12.4125 5.29833333,12.4125" id="Fill-20" fill="#010202"></path><path d="M33.5286111,8.78472222 C34.0943519,8.78472222 34.555463,9.24583333 34.555463,9.81157407 C34.555463,10.3782407 34.0943519,10.8393519 33.5286111,10.8393519 C32.9628704,10.8393519 32.5017593,10.3782407 32.5017593,9.81157407 C32.5017593,9.24583333 32.9628704,8.78472222 33.5286111,8.78472222 M33.5286111,12.4125 C34.9628704,12.4125 36.129537,11.2458333 36.129537,9.81157407 C36.129537,8.37824074 34.9628704,7.21157407 33.5286111,7.21157407 C32.0943519,7.21157407 30.9276852,8.37824074 30.9276852,9.81157407 C30.9276852,11.2458333 32.0943519,12.4125 33.5286111,12.4125" id="Fill-22" fill="#010202"></path><path d="M8.03268519,13.5137963 L8.01509259,13.5313889 L8.03268519,13.5147222 C8.06046296,13.5480556 8.07527778,13.5878704 8.10768519,13.6175 C8.28546296,13.7841667 8.51231481,13.8665741 8.73916667,13.8665741 C8.98638889,13.8665741 9.23361111,13.7675 9.41601852,13.5721296 C9.76509259,13.1980556 9.74472222,12.6119444 9.37064815,12.2628704 L9.30953704,12.2063889 C8.93638889,11.8591667 8.38083333,11.9073148 8.03175926,12.280463 C7.71231481,12.6221296 7.74194444,13.1563889 8.03268519,13.5137963" id="Fill-24" fill="#010202"></path><path d="M13.9255556,18.9699074 C13.9227778,18.9615741 13.8866667,18.8763889 13.8838889,18.8699074 C13.6848148,18.4041667 13.1644444,18.2236111 12.6959259,18.4162037 C12.2274074,18.6087963 12.0172222,19.1819444 12.2042593,19.6513889 C12.3477778,20.0152778 12.6968519,20.2365741 13.0653704,20.2365741 C13.1783333,20.2365741 13.2940741,20.2162037 13.4061111,20.1717593 C13.8811111,19.9828704 14.1144444,19.4449074 13.9255556,18.9699074" id="Fill-26" fill="#010202"></path><path d="M13.8518519,22.6962037 C13.9166667,22.6962037 13.9833333,22.6897222 14.0490741,22.6758333 C14.5481481,22.5665741 14.8657407,22.0739815 14.7583333,21.5739815 C14.7564815,21.5693519 14.737963,21.4832407 14.7361111,21.4786111 C14.6212963,20.9832407 14.1388889,20.7128704 13.6398148,20.8258333 C13.1444444,20.9378704 12.8398148,21.4693519 12.9472222,21.9665741 C13.0416667,22.4008333 13.4259259,22.6962037 13.8518519,22.6962037" id="Fill-28" fill="#010202"></path><path d="M9.74388889,15.4307407 C9.92722222,15.6612963 10.1975926,15.7816667 10.4707407,15.7816667 C10.6716667,15.7816667 10.8744444,15.7168519 11.0448148,15.5816667 C11.4457407,15.2640741 11.5133333,14.6816667 11.1957407,14.2807407 L11.1448148,14.2159259 C10.8262963,13.815 10.2688889,13.7788889 9.86981481,14.0974074 C9.46888889,14.4140741 9.4262963,15.0288889 9.74388889,15.4307407" id="Fill-30" fill="#010202"></path><path d="M11.0767593,17.4001852 C11.0786111,17.4038889 11.1239815,17.4798148 11.1258333,17.4835185 C11.2971296,17.7612963 11.5850926,17.9075926 11.8850926,17.9075926 C12.0517593,17.9075926 12.2221296,17.8612963 12.3776852,17.7677778 C12.8128704,17.5057407 12.9425,16.9196296 12.6850926,16.4816667 C12.6841667,16.4807407 12.6684259,16.4538889 12.6675,16.452963 C12.4063889,16.0122222 11.8369444,15.8687037 11.3980556,16.1307407 C10.9591667,16.3927778 10.8147222,16.9612963 11.0767593,17.4001852" id="Fill-32" fill="#010202"></path><path d="M14.0959259,25.1810185 C14.607037,25.1810185 15.0218519,24.7671296 15.0218519,24.2550926 L15.0218519,24.2060185 C15.0218519,23.6949074 14.607037,23.3050926 14.0959259,23.3050926 C13.5848148,23.3050926 13.17,23.7430556 13.17,24.2550926 C13.17,24.7671296 13.5848148,25.1810185 14.0959259,25.1810185" id="Fill-34" fill="#010202"></path><path d="M27.0069444,19.8958333 C27.0106481,19.8875 27.050463,19.8041667 27.0541667,19.7967593 C27.2671296,19.3375 27.0541667,18.8300926 26.5986111,18.6097222 C26.1421296,18.3912037 25.5773148,18.6152778 25.350463,19.0671296 C25.1217593,19.525463 25.3069444,20.0810185 25.7643519,20.3097222 C25.8976852,20.3763889 26.0393519,20.4078704 26.1773148,20.4078704 C26.5180556,20.4078704 26.8449074,20.2208333 27.0069444,19.8958333" id="Fill-36" fill="#010202"></path><path d="M26.2062037,22.0478704 C26.3302778,21.5525 26.0182407,21.090463 25.5219444,20.9663889 C25.0256481,20.8376852 24.5126852,21.1849074 24.389537,21.6812037 C24.265463,22.1765741 24.5663889,22.6793519 25.0626852,22.8025 C25.1386111,22.8219444 25.2136111,22.8312037 25.2886111,22.8312037 C25.7034259,22.8312037 26.0802778,22.5506481 26.1858333,22.1293519 L26.2062037,22.0478704 Z" id="Fill-38" fill="#010202"></path><path d="M26.61,16.7364815 C26.3488889,17.1762963 26.4942593,17.7448148 26.935,18.005 C27.0822222,18.092963 27.2451852,18.1346296 27.4053704,18.1346296 C27.722037,18.1346296 28.0303704,17.9725926 28.2035185,17.6809259 L27.4498148,17.1374074 L28.2387037,17.6225926 C28.5062963,17.1864815 28.3711111,16.6161111 27.935,16.3485185 C27.4988889,16.0790741 26.9285185,16.2161111 26.6618519,16.6512963 C26.6590741,16.6559259 26.6127778,16.7318519 26.61,16.7364815" id="Fill-40" fill="#010202"></path><path d="M28.8249074,15.9714815 C29.1165741,15.9714815 29.4036111,15.8344444 29.5841667,15.5761111 L28.8739815,14.977963 L29.6258333,15.5187037 C29.9239815,15.1038889 29.830463,14.5251852 29.4156481,14.2261111 C29.0008333,13.9288889 28.4212037,14.0233333 28.1230556,14.4372222 C28.1202778,14.44 28.0693519,14.5112963 28.0675,14.515 C27.7739815,14.9335185 27.8758333,15.5112963 28.2952778,15.8038889 C28.4563889,15.9168519 28.6415741,15.9714815 28.8249074,15.9714815" id="Fill-42" fill="#010202"></path><path d="M30.3833333,13.9080556 C30.65,13.9080556 30.9148148,13.7932407 31.0972222,13.5719444 C31.0981481,13.5710185 31.1231481,13.540463 31.1398148,13.5210185 C31.1472222,13.5117593 31.1574074,13.5006481 31.1611111,13.4969444 C31.5,13.114537 31.4481481,12.5460185 31.0648148,12.2071296 C30.6814815,11.8673148 30.0814815,11.9210185 29.7425926,12.3052778 C29.7277778,12.3210185 29.725,12.3423148 29.7111111,12.3580556 C29.6990741,12.3719444 29.6814815,12.3784259 29.6694444,12.3923148 C29.3444444,12.7867593 29.4,13.3700926 29.7944444,13.6960185 C29.9666667,13.8386111 30.175,13.9080556 30.3833333,13.9080556" id="Fill-44" fill="#010202"></path><path d="M25.0487963,23.3047222 C24.5376852,23.3047222 24.1228704,23.7436111 24.1228704,24.2547222 C24.1228704,24.7639815 24.5339815,25.1658333 25.0423148,25.1686111 C25.0450926,25.1686111 25.0469444,25.169537 25.0487963,25.169537 C25.5543519,25.169537 25.9682407,24.7510185 25.9747222,24.2436111 C25.9747222,24.2389815 25.9747222,24.2112037 25.9747222,24.2065741 C25.9747222,23.694537 25.5608333,23.3047222 25.0487963,23.3047222" id="Fill-46" fill="#010202"></path></g></g></g></svg> 