<?xml version="1.0" encoding="UTF-8"?> <svg xmlns="http://www.w3.org/2000/svg" xmlns:xlink="http://www.w3.org/1999/xlink" width="60px" height="60px" viewBox="0 0 60 60" version="1.1"><title>FEATURES/integratedprodmodel/02</title><defs><filter id="filter-1"><feColorMatrix in="SourceGraphic" type="matrix" values="0 0 0 0 0.000000 0 0 0 0 1.000000 0 0 0 0 0.703016 0 0 0 1.000000 0"></feColorMatrix></filter><polygon id="path-2" points="0 0.514947761 15.1484776 0.514947761 15.1484776 15.6629328 0 15.6629328"></polygon></defs><g id="FEATURES/integratedprodmodel/02" stroke="none" stroke-width="1" fill="none" fill-rule="evenodd"><g filter="url(#filter-1)" id="Group-44"><g transform="translate(3.000000, 10.000000)"><path d="M52.9727994,15.4686632 C52.6267308,15.1336297 52.0654787,15.1336297 51.7194101,15.4686632 L45.8547318,21.1463366 L42.7452913,18.1353299 C42.3992228,17.8002963 41.8372312,17.8002963 41.4919021,18.1353299 C41.1458336,18.4703635 41.1458336,19.0137192 41.4919021,19.3487527 L45.2284069,22.9661129 C45.4014412,23.1336297 45.6277168,23.2173881 45.8547318,23.2173881 C46.0817469,23.2173881 46.3087619,23.1336297 46.4817961,22.9661129 L52.9727994,16.682086 C53.3188679,16.3470525 53.3188679,15.8036968 52.9727994,15.4686632" id="Fill-1" fill="#010202"></path><g id="Group-5" transform="translate(0.000000, 12.535075)"><mask id="mask-3" fill="white"><use xlink:href="#path-2"></use></mask><g id="Clip-4"></g><path d="M7.57407463,13.4826343 C4.59997015,13.4826343 2.18079104,11.0634552 2.18079104,8.08935075 C2.18079104,5.11524627 4.59997015,2.69524627 7.57407463,2.69524627 C10.5481791,2.69524627 12.9673582,5.11524627 12.9673582,8.08935075 C12.9673582,11.0634552 10.5481791,13.4826343 7.57407463,13.4826343 M7.57407463,0.514947761 C3.39735821,0.514947761 -0.000328358209,3.91263433 -0.000328358209,8.08935075 C-0.000328358209,12.2652463 3.39735821,15.6629328 7.57407463,15.6629328 C11.750791,15.6629328 15.1484776,12.2652463 15.1484776,8.08935075 C15.1484776,3.91263433 11.750791,0.514947761 7.57407463,0.514947761" id="Fill-3" fill="#010202" mask="url(#mask-3)"></path></g><path d="M37.972,19.5339478 C37.3702836,19.5339478 36.8818507,20.0223806 36.8818507,20.624097 C36.8818507,21.2266343 37.3702836,21.7142463 37.972,21.7142463 L38.7928955,21.7142463 C39.3946119,21.7142463 39.8830448,21.2266343 39.8830448,20.624097 C39.8830448,20.0223806 39.3946119,19.5339478 38.7928955,19.5339478 L37.972,19.5339478 Z" id="Fill-6" fill="#010202"></path><path d="M26.4794627,19.5339478 L25.6585672,19.5339478 C25.0568507,19.5339478 24.5684179,20.0223806 24.5684179,20.624097 C24.5684179,21.2266343 25.0568507,21.7142463 25.6585672,21.7142463 L26.4794627,21.7142463 C27.0811791,21.7142463 27.5696119,21.2266343 27.5696119,20.624097 C27.5696119,20.0223806 27.0811791,19.5339478 26.4794627,19.5339478" id="Fill-8" fill="#010202"></path><path d="M35.7787313,20.6241791 C35.7787313,20.0224627 35.2902985,19.5340299 34.6885821,19.5340299 L33.8676866,19.5340299 C33.2651493,19.5340299 32.7775373,20.0224627 32.7775373,20.6241791 C32.7775373,21.2258955 33.2651493,21.7143284 33.8676866,21.7143284 L34.6885821,21.7143284 C35.2902985,21.7143284 35.7787313,21.2258955 35.7787313,20.6241791" id="Fill-10" fill="#010202"></path><path d="M30.5839403,19.5339478 L29.7630448,19.5339478 C29.1613284,19.5339478 28.6728955,20.0223806 28.6728955,20.624097 C28.6728955,21.2266343 29.1613284,21.7142463 29.7630448,21.7142463 L30.5839403,21.7142463 C31.1856567,21.7142463 31.6740896,21.2266343 31.6740896,20.624097 C31.6740896,20.0223806 31.1856567,19.5339478 30.5839403,19.5339478" id="Fill-12" fill="#010202"></path><path d="M18.0509179,19.5339478 L17.2300224,19.5339478 C16.628306,19.5339478 16.1398731,20.0223806 16.1398731,20.624097 C16.1398731,21.2266343 16.628306,21.7142463 17.2300224,21.7142463 L18.0509179,21.7142463 C18.6526343,21.7142463 19.1410672,21.2266343 19.1410672,20.624097 C19.1410672,20.0223806 18.6526343,19.5339478 18.0509179,19.5339478" id="Fill-14" fill="#010202"></path><path d="M21.7160522,21.835903 C22.3177687,21.835903 22.8062015,21.3474701 22.8062015,20.7457537 L22.8062015,19.9248582 C22.8062015,19.3223209 22.3177687,18.834709 21.7160522,18.834709 C21.1143358,18.834709 20.625903,19.3223209 20.625903,19.9248582 L20.625903,20.7457537 C20.625903,21.3474701 21.1143358,21.835903 21.7160522,21.835903" id="Fill-16" fill="#010202"></path><path d="M21.7160522,17.7314254 C22.3177687,17.7314254 22.8062015,17.2429925 22.8062015,16.6412761 L22.8062015,15.8203806 C22.8062015,15.2178433 22.3177687,14.7302313 21.7160522,14.7302313 C21.1143358,14.7302313 20.625903,15.2178433 20.625903,15.8203806 L20.625903,16.6412761 C20.625903,17.2429925 21.1143358,17.7314254 21.7160522,17.7314254" id="Fill-18" fill="#010202"></path><path d="M33.877209,5.15382836 L34.6981045,5.15382836 C35.2998209,5.15382836 35.7882537,4.66539552 35.7882537,4.0636791 C35.7882537,3.46114179 35.2998209,2.97352985 34.6981045,2.97352985 L33.877209,2.97352985 C33.2754925,2.97352985 32.7870597,3.46114179 32.7870597,4.0636791 C32.7870597,4.66539552 33.2754925,5.15382836 33.877209,5.15382836" id="Fill-20" fill="#010202"></path><path d="M30.4925746,3.0226194 C30.1880224,3.05217164 29.8867537,3.09321642 29.5887687,3.14739552 C28.996903,3.25493284 28.603694,3.82299254 28.7112313,4.41485821 C28.8064552,4.94187313 29.2661567,5.31045522 29.7825,5.31045522 C29.8473507,5.31045522 29.9130224,5.30470896 29.978694,5.29321642 C30.2151119,5.24970896 30.4556343,5.21605224 30.6994403,5.19388806 C31.2978731,5.13642537 31.738694,4.60448507 31.6812313,4.00523134 C31.6245896,3.40597761 31.0959328,2.96926119 30.4925746,3.0226194" id="Fill-22" fill="#010202"></path><path d="M21.6623657,13.6212836 C21.7124403,13.6278507 21.7608731,13.6311343 21.8101269,13.6311343 C22.3469925,13.6311343 22.8140821,13.2346418 22.8887836,12.6871045 C22.9207985,12.4457612 22.9651269,12.2068806 23.0168433,11.9712836 C23.1490075,11.3835224 22.7787836,10.8006866 22.1918433,10.6701642 C21.6024403,10.5388209 21.0212463,10.9082239 20.889903,11.4959851 C20.8234104,11.7915075 20.7692313,12.0911343 20.7273657,12.3948657 C20.6477388,12.9916567 21.0647537,13.5408358 21.6623657,13.6212836" id="Fill-24" fill="#010202"></path><path d="M22.6203507,9.63829851 C22.799306,9.7491194 22.9979627,9.80247761 23.1941567,9.80247761 C23.5594552,9.80247761 23.914903,9.61941791 24.1209478,9.28695522 C24.2490075,9.08091045 24.386097,8.88143284 24.5305746,8.6868806 C24.8917687,8.20501493 24.7924403,7.52120896 24.3105746,7.16083582 C23.828709,6.80128358 23.144903,6.89979104 22.7845299,7.38165672 C22.602291,7.62546269 22.429903,7.87747761 22.2690075,8.1368806 C21.9513209,8.64829851 22.1089328,9.32061194 22.6203507,9.63829851" id="Fill-26" fill="#010202"></path><path d="M21.7160522,25.9403806 C22.3177687,25.9403806 22.8062015,25.4519478 22.8062015,24.8502313 L22.8062015,24.0293358 C22.8062015,23.4267985 22.3177687,22.9391866 21.7160522,22.9391866 C21.1143358,22.9391866 20.625903,23.4267985 20.625903,24.0293358 L20.625903,24.8502313 C20.625903,25.4519478 21.1143358,25.9403806 21.7160522,25.9403806" id="Fill-28" fill="#010202"></path><path d="M26.8121716,34.6984328 C26.6077687,34.5654478 26.408291,34.4242537 26.2145597,34.2748507 C25.7384403,33.9070896 25.0538134,33.9957463 24.6860522,34.4718657 C24.318291,34.9479851 24.405306,35.6326119 24.8822463,36.0003731 C25.1219478,36.1858955 25.3698582,36.3607463 25.6243358,36.5265672 C25.8073955,36.645597 26.0134403,36.7022388 26.2170224,36.7022388 C26.5741119,36.7022388 26.9229925,36.528209 27.1323209,36.2064179 C27.4606791,35.7023881 27.3170224,35.026791 26.8121716,34.6984328" id="Fill-30" fill="#010202"></path><path d="M30.1895821,35.9906866 C29.9490597,35.9537463 29.711,35.9053134 29.4762239,35.8486716 C28.894209,35.7058358 28.3007015,36.0645672 28.1586866,36.6490448 C28.0166716,37.2343433 28.3745821,37.8237463 28.9598806,37.9665821 C29.2537612,38.0388209 29.5533881,38.0987463 29.8546567,38.1455373 C29.9112985,38.1545672 29.9671194,38.1586716 30.0237612,38.1586716 C30.551597,38.1586716 31.0162239,37.7736716 31.0991343,37.2351642 C31.1918955,36.6408358 30.7847313,36.0834478 30.1895821,35.9906866" id="Fill-32" fill="#010202"></path><path d="M22.0174851,30.0227761 C22.6118134,29.9267313 23.015694,29.3677015 22.9204701,28.7733731 C22.8810672,28.5336716 22.8523358,28.2915075 22.8326343,28.0460597 C22.7858433,27.4459851 22.2678582,27.0010597 21.6595746,27.0453881 C21.0595,27.093 20.611291,27.6175522 20.658903,28.2176269 C20.682709,28.5221791 20.7196493,28.8234478 20.7672612,29.119791 C20.8534552,29.6558358 21.3164403,30.0367313 21.8418134,30.0367313 C21.8992761,30.0367313 21.9583806,30.0326269 22.0174851,30.0227761" id="Fill-34" fill="#010202"></path><path d="M26.1724478,4.38867164 C25.9089403,4.53889552 25.6495373,4.69979104 25.3999851,4.87135821 C24.9033433,5.21202985 24.7769254,5.89091045 25.1167761,6.38755224 C25.3285672,6.69620896 25.6700597,6.86120896 26.0172985,6.86120896 C26.2290896,6.86120896 26.4441642,6.79964179 26.6329701,6.67076119 C26.8332687,6.53367164 27.0393134,6.40479104 27.2511045,6.2841194 C27.7740149,5.98613433 27.9570746,5.32038806 27.6599104,4.79747761 C27.3611045,4.27292537 26.697,4.08986567 26.1724478,4.38867164" id="Fill-36" fill="#010202"></path><path d="M23.8612985,31.5154925 C23.5715224,30.9860149 22.9098806,30.7931045 22.3812239,31.0804179 C21.8533881,31.3693731 21.6580149,32.0310149 21.9469701,32.5596716 C22.0930896,32.8272836 22.2490597,33.0875075 22.4157015,33.3403433 C22.6250299,33.6588507 22.9730896,33.8320597 23.3277164,33.8320597 C23.5337612,33.8320597 23.7414478,33.7737761 23.9253284,33.6531045 C24.4285373,33.3222836 24.5680896,32.6458657 24.2372687,32.1426567 C24.1042836,31.9398955 23.9786866,31.7305672 23.8612985,31.5154925" id="Fill-38" fill="#010202"></path><path d="M37.885791,7.69228358 C38.0458657,7.85235821 38.2560149,7.93280597 38.4661642,7.93280597 C38.6763134,7.93280597 38.8864627,7.85235821 39.0465373,7.69228358 L41.6118358,5.12698507 L44.1771343,7.69228358 C44.337209,7.85235821 44.5473582,7.93280597 44.7575075,7.93280597 C44.9676567,7.93280597 45.177806,7.85235821 45.3378806,7.69228358 C45.6588507,7.37131343 45.6588507,6.85250746 45.3378806,6.53153731 L42.7725821,3.96623881 L45.3378806,1.4009403 C45.6588507,1.08079104 45.6588507,0.561164179 45.3378806,0.24019403 C45.0177313,-0.0799552239 44.4981045,-0.0799552239 44.1771343,0.24019403 L41.6118358,2.80549254 L39.0465373,0.24019403 C38.7255672,-0.0799552239 38.2067612,-0.0799552239 37.885791,0.24019403 C37.5648209,0.561164179 37.5648209,1.08079104 37.885791,1.4009403 L40.4510896,3.96623881 L37.885791,6.53153731 C37.5648209,6.85250746 37.5648209,7.37131343 37.885791,7.69228358" id="Fill-40" fill="#010202"></path><path d="M39.6961716,33.5745448 C39.3752015,33.2535746 38.8563955,33.2535746 38.5354254,33.5745448 L35.9701269,36.1398433 L33.4048284,33.5745448 C33.0838582,33.2535746 32.5642313,33.2535746 32.2440821,33.5745448 C31.9231119,33.8955149 31.9231119,34.4151418 32.2440821,34.735291 L34.8093806,37.3005896 L32.2440821,39.8650672 C31.9231119,40.1852164 31.9231119,40.7056642 32.2440821,41.0258134 C32.4041567,41.1858881 32.614306,41.2663358 32.8244552,41.2663358 C33.0346045,41.2663358 33.2447537,41.1858881 33.4048284,41.0258134 L35.9701269,38.4613358 L38.5354254,41.0258134 C38.6955,41.1858881 38.9056493,41.2663358 39.1157985,41.2663358 C39.3259478,41.2663358 39.536097,41.1858881 39.6961716,41.0258134 C40.0171418,40.7056642 40.0171418,40.1852164 39.6961716,39.8650672 L37.1308731,37.3005896 L39.6961716,34.735291 C40.0171418,34.4151418 40.0171418,33.8955149 39.6961716,33.5745448" id="Fill-42" fill="#010202"></path></g></g></g></svg> 