<?xml version="1.0" encoding="UTF-8"?> <svg xmlns="http://www.w3.org/2000/svg" xmlns:xlink="http://www.w3.org/1999/xlink" width="60px" height="60px" viewBox="0 0 60 60" version="1.1"><title>IMG/financials/feature_03 Copy</title><defs><filter id="filter-1"><feColorMatrix in="SourceGraphic" type="matrix" values="0 0 0 0 0.000000 0 0 0 0 1.000000 0 0 0 0 0.703016 0 0 0 1.000000 0"></feColorMatrix></filter><polygon id="path-2" points="0.000350877193 0.101491228 49.8008772 0.101491228 49.8008772 44.7365789 0.000350877193 44.7365789"></polygon></defs><g id="IMG/financials/feature_03-Copy" stroke="none" stroke-width="1" fill="none" fill-rule="evenodd"><g filter="url(#filter-1)" id="Group-26"><g transform="translate(5.000000, 7.000000)"><g id="Group-3" transform="translate(0.000000, 0.776140)"><mask id="mask-3" fill="white"><use xlink:href="#path-2"></use></mask><g id="Clip-2"></g><path d="M47.3898246,34.5865789 L2.41175439,34.5865789 C1.90385965,34.5865789 1.49070175,34.1734211 1.49070175,33.6655263 L1.49070175,30.4558772 L48.3108772,30.4558772 L48.3108772,33.6655263 C48.3108772,34.1734211 47.8977193,34.5865789 47.3898246,34.5865789 M33.537193,43.2462281 L16.7196491,43.2462281 C18.7477193,41.5576316 20.1389474,38.7014912 20.3038596,36.0769298 L29.9529825,36.0769298 C30.1187719,38.7014912 31.5091228,41.5576316 33.537193,43.2462281 M2.41175439,1.59184211 L47.3898246,1.59184211 C47.8977193,1.59184211 48.3108772,2.00412281 48.3108772,2.51289474 L48.3108772,28.9655263 L1.49070175,28.9655263 L1.49070175,2.51289474 C1.49070175,2.00412281 1.90385965,1.59184211 2.41175439,1.59184211 M47.3898246,0.101491228 L2.41175439,0.101491228 C1.08192982,0.101491228 0.000350877193,1.18307018 0.000350877193,2.51289474 L0.000350877193,33.6655263 C0.000350877193,34.9953509 1.08192982,36.0769298 2.41175439,36.0769298 L18.8126316,36.0769298 C18.555614,39.3690351 15.9214035,43.2462281 12.9757895,43.2462281 L8.64508772,43.2462281 C8.23280702,43.2462281 7.89947368,43.5795614 7.89947368,43.9918421 C7.89947368,44.4032456 8.23280702,44.7365789 8.64508772,44.7365789 L41.1564912,44.7365789 C41.5678947,44.7365789 41.9012281,44.4032456 41.9012281,43.9918421 C41.9012281,43.5795614 41.5678947,43.2462281 41.1564912,43.2462281 L37.282807,43.2462281 C34.3354386,43.2462281 31.7012281,39.3690351 31.4442105,36.0769298 L47.3898246,36.0769298 C48.7196491,36.0769298 49.8012281,34.9953509 49.8012281,33.6655263 L49.8012281,2.51289474 C49.8012281,1.18307018 48.7196491,0.101491228 47.3898246,0.101491228" id="Fill-1" fill="#010202" mask="url(#mask-3)"></path></g><path d="M14.3297368,6.60552632 L14.3297368,9.92657895 C11.0823684,10.2985088 8.55078947,13.0599123 8.55078947,16.4055263 C8.55078947,18.249386 9.32359649,19.9142982 10.557807,21.1020175 L8.21570175,23.4432456 C6.38149123,21.6555263 5.23763158,19.1625439 5.23763158,16.4055263 C5.23763158,11.2327193 9.25342105,6.98885965 14.3297368,6.60552632 L14.3297368,6.60552632 Z M24.8744737,15.6599123 L21.5534211,15.6599123 C21.4051754,14.3686842 20.8823684,13.1897368 20.0902632,12.2388596 L22.4692105,9.93885965 C23.8314912,11.4932456 24.7095614,13.4765789 24.8744737,15.6599123 L24.8744737,15.6599123 Z M15.0753509,11.372193 C17.8507895,11.372193 20.1086842,13.6300877 20.1086842,16.4055263 C20.1086842,19.1809649 17.8507895,21.4388596 15.0753509,21.4388596 C12.2999123,21.4388596 10.0411404,19.1809649 10.0411404,16.4055263 C10.0411404,13.6300877 12.2999123,11.372193 15.0753509,11.372193 L15.0753509,11.372193 Z M19.007807,11.2116667 C18.0999123,10.5230702 17.0104386,10.0625439 15.8200877,9.92657895 L15.8200877,6.60552632 C17.9402632,6.76605263 19.8735965,7.595 21.4086842,8.88973684 L19.007807,11.2116667 Z M15.0753509,26.2432456 C12.9455263,26.2432456 10.9779825,25.5564035 9.36570175,24.4011404 L11.7542982,22.0116667 C12.7288596,22.5914912 13.862193,22.9292105 15.0753509,22.9292105 C18.4200877,22.9292105 21.1823684,20.3985088 21.5534211,17.1502632 L24.8744737,17.1502632 C24.4911404,22.2274561 20.2472807,26.2432456 15.0753509,26.2432456 L15.0753509,26.2432456 Z M15.0753509,27.7335965 C21.3218421,27.7335965 26.4034211,22.6520175 26.4034211,16.4055263 C26.4034211,10.1590351 21.3218421,5.07745614 15.0753509,5.07745614 C8.82885965,5.07745614 3.7472807,10.1590351 3.7472807,16.4055263 C3.7472807,22.6520175 8.82885965,27.7335965 15.0753509,27.7335965 L15.0753509,27.7335965 Z" id="Fill-4" fill="#010202"></path><path d="M29.32,8.94675439 L31.1436842,8.94675439 C31.442807,9.7195614 32.1884211,10.2686842 33.0664912,10.2686842 C33.9445614,10.2686842 34.6901754,9.7195614 34.9901754,8.94675439 L45.0445614,8.94675439 C45.4568421,8.94675439 45.7892982,8.61342105 45.7892982,8.20114035 C45.7892982,7.78973684 45.4568421,7.45640351 45.0445614,7.45640351 L34.9892982,7.45640351 C34.6892982,6.68447368 33.9436842,6.13447368 33.0664912,6.13447368 C32.1892982,6.13447368 31.4436842,6.68447368 31.1436842,7.45640351 L29.32,7.45640351 C28.9077193,7.45640351 28.574386,7.78973684 28.574386,8.20114035 C28.574386,8.61342105 28.9077193,8.94675439 29.32,8.94675439" id="Fill-6" fill="#010202"></path><path d="M29.32,13.6187719 L39.3752632,13.6187719 C39.6752632,14.3907018 40.42,14.9407018 41.297193,14.9407018 C42.1752632,14.9407018 42.9208772,14.3907018 43.2208772,13.6187719 L45.0445614,13.6187719 C45.4568421,13.6187719 45.7892982,13.2854386 45.7892982,12.8731579 C45.7892982,12.4617544 45.4568421,12.1284211 45.0445614,12.1284211 L43.2208772,12.1284211 C42.9217544,11.355614 42.1752632,10.8064912 41.297193,10.8064912 C40.4191228,10.8064912 39.674386,11.355614 39.3752632,12.1284211 L29.32,12.1284211 C28.9077193,12.1284211 28.574386,12.4617544 28.574386,12.8731579 C28.574386,13.2854386 28.9077193,13.6187719 29.32,13.6187719" id="Fill-8" fill="#010202"></path><path d="M29.32,18.29 L31.1436842,18.29 C31.442807,19.0619298 32.1892982,19.6119298 33.0664912,19.6119298 C33.9445614,19.6119298 34.6901754,19.0619298 34.9892982,18.29 L45.0445614,18.29 C45.4568421,18.29 45.7892982,17.9566667 45.7892982,17.544386 C45.7892982,17.1329825 45.4568421,16.7996491 45.0445614,16.7996491 L34.9892982,16.7996491 C34.6901754,16.0277193 33.9436842,15.4777193 33.0664912,15.4777193 C32.1892982,15.4777193 31.4436842,16.0277193 31.1436842,16.7996491 L29.32,16.7996491 C28.9077193,16.7996491 28.574386,17.1329825 28.574386,17.544386 C28.574386,17.9566667 28.9077193,18.29 29.32,18.29" id="Fill-10" fill="#010202"></path><path d="M29.32,26.8221053 C29.7322807,26.8221053 30.065614,26.4887719 30.065614,26.0764912 L30.065614,22.4449123 C30.065614,22.0326316 29.7322807,21.6992982 29.32,21.6992982 C28.9077193,21.6992982 28.574386,22.0326316 28.574386,22.4449123 L28.574386,26.0764912 C28.574386,26.4887719 28.9077193,26.8221053 29.32,26.8221053" id="Fill-12" fill="#010202"></path><path d="M31.9413158,24.4337719 C31.5290351,24.4337719 31.1957018,24.7671053 31.1957018,25.179386 L31.1957018,26.0767544 C31.1957018,26.4890351 31.5290351,26.8223684 31.9413158,26.8223684 C32.3535965,26.8223684 32.6869298,26.4890351 32.6869298,26.0767544 L32.6869298,25.179386 C32.6869298,24.7671053 32.3535965,24.4337719 31.9413158,24.4337719" id="Fill-14" fill="#010202"></path><path d="M34.5617544,21.699386 C34.1494737,21.699386 33.8161404,22.0327193 33.8161404,22.445 L33.8161404,26.0765789 C33.8161404,26.4888596 34.1494737,26.822193 34.5617544,26.822193 C34.9740351,26.822193 35.3073684,26.4888596 35.3073684,26.0765789 L35.3073684,22.445 C35.3073684,22.0327193 34.9740351,21.699386 34.5617544,21.699386" id="Fill-16" fill="#010202"></path><path d="M37.182193,22.6108772 C36.7699123,22.6108772 36.4365789,22.9442105 36.4365789,23.3564912 L36.4365789,26.0766667 C36.4365789,26.4889474 36.7699123,26.8222807 37.182193,26.8222807 C37.5944737,26.8222807 37.927807,26.4889474 37.927807,26.0766667 L37.927807,23.3564912 C37.927807,22.9442105 37.5944737,22.6108772 37.182193,22.6108772" id="Fill-18" fill="#010202"></path><path d="M39.8026316,25.3315789 C39.3903509,25.3315789 39.0570175,25.6649123 39.0570175,26.077193 L39.0570175,26.0903509 C39.0570175,26.5026316 39.3903509,26.8289474 39.8026316,26.8289474 C40.2149123,26.8289474 40.5482456,26.4885965 40.5482456,26.077193 C40.5482456,25.6649123 40.2149123,25.3315789 39.8026316,25.3315789" id="Fill-20" fill="#010202"></path><path d="M42.4230702,25.3315789 C42.0107895,25.3315789 41.6774561,25.6649123 41.6774561,26.077193 L41.6774561,26.0903509 C41.6774561,26.5026316 42.0107895,26.8289474 42.4230702,26.8289474 C42.8353509,26.8289474 43.1686842,26.4885965 43.1686842,26.077193 C43.1686842,25.6649123 42.8353509,25.3315789 42.4230702,25.3315789" id="Fill-22" fill="#010202"></path><path d="M45.044386,21.699386 C44.6321053,21.699386 44.2987719,22.0327193 44.2987719,22.445 L44.2987719,26.0765789 C44.2987719,26.4888596 44.6321053,26.822193 45.044386,26.822193 C45.4566667,26.822193 45.79,26.4888596 45.79,26.0765789 L45.79,22.445 C45.79,22.0327193 45.4566667,21.699386 45.044386,21.699386" id="Fill-24" fill="#010202"></path></g></g></g></svg> 