<?xml version="1.0" encoding="UTF-8"?> <svg xmlns="http://www.w3.org/2000/svg" xmlns:xlink="http://www.w3.org/1999/xlink" width="60px" height="60px" viewBox="0 0 60 60" version="1.1"><title>FEATURES/integratedprodmodel/03</title><defs><filter id="filter-1"><feColorMatrix in="SourceGraphic" type="matrix" values="0 0 0 0 0.000000 0 0 0 0 1.000000 0 0 0 0 0.703016 0 0 0 1.000000 0"></feColorMatrix></filter><polygon id="path-2" points="0 0.464386441 37.0911126 0.464386441 37.0911126 44.8441831 0 44.8441831"></polygon><polygon id="path-4" points="0.688691525 0.528813559 13.8838983 0.528813559 13.8838983 13.8759797 0.688691525 13.8759797"></polygon></defs><g id="FEATURES/integratedprodmodel/03" stroke="none" stroke-width="1" fill="none" fill-rule="evenodd"><g filter="url(#filter-1)" id="Group-35"><g transform="translate(4.000000, 3.000000)"><path d="M12.0196678,46.0848678 C11.6063119,46.0848678 11.2705153,45.7499525 11.2705153,45.3357153 L11.2705153,16.3796475 C11.2705153,15.0452746 12.3563458,13.9603254 13.6907186,13.9603254 L35.7660407,13.9603254 C36.1793966,13.9603254 36.5151932,14.2952407 36.5151932,14.7085966 C36.5151932,15.1228339 36.1793966,15.4577492 35.7660407,15.4577492 L13.6907186,15.4577492 C13.1821763,15.4577492 12.7688203,15.8719864 12.7688203,16.3796475 L12.7688203,45.3357153 C12.7688203,45.7499525 12.4330237,46.0848678 12.0196678,46.0848678" id="Fill-1" fill="#010202"></path><path d="M9.24515932,46.1950373 C9.16319322,46.9547661 9.14115932,48.2873763 9.82068475,49.1396475 C10.2684136,49.7010712 10.9682102,49.9734102 11.9597356,49.9734102 L32.9263119,49.9734102 C32.6830576,49.552122 32.5543797,49.0612068 32.5543797,48.5306305 L32.5543797,46.1950373 L9.24515932,46.1950373 Z M35.8788542,51.4708339 L35.8629898,51.4708339 L11.9597356,51.4708339 C10.5002102,51.4708339 9.38529492,50.9993085 8.64495593,50.0685966 C7.20570169,48.2574102 7.84644746,45.3982915 7.87465085,45.2775458 C7.95309153,44.9373424 8.25539661,44.6976136 8.60441356,44.6976136 L33.3035322,44.6976136 C33.7177695,44.6976136 34.0526847,45.0325288 34.0526847,45.4458847 L34.0526847,48.5306305 C34.0526847,48.9915797 34.2166169,49.3379525 34.5515322,49.5900203 C34.8741085,49.8315119 35.3526847,49.9707661 35.8665153,49.9734102 L35.8903119,49.9734102 C36.8827186,49.9690034 37.9315322,49.4639864 37.9315322,48.5306305 L37.9315322,17.7933424 C37.9315322,17.3799864 38.2673288,17.0450712 38.6806847,17.0450712 C39.0940407,17.0450712 39.4298373,17.3799864 39.4298373,17.7933424 L39.4298373,48.5306305 C39.4298373,50.3938169 37.688278,51.4205966 36.0057695,51.4690712 C35.9881424,51.4708339 35.9705153,51.4708339 35.9528881,51.4708339 L35.8938373,51.4708339 L35.8788542,51.4708339 Z" id="Fill-3" fill="#010202"></path><path d="M25.4603458,28.314 C25.2682102,28.314 25.0769559,28.2408475 24.9306508,28.0945424 C24.6380407,27.8028136 24.6380407,27.3277627 24.9306508,27.0360339 L39.0147186,12.9502034 C39.3073288,12.6575932 39.7823797,12.6575932 40.0749898,12.9502034 C40.3676,13.2419322 40.3676,13.7169831 40.0749898,14.0095932 L25.9900407,28.0945424 C25.8437356,28.2408475 25.6524814,28.314 25.4603458,28.314" id="Fill-5" fill="#010202"></path><path d="M15.9974034,15.4559864 C15.7717763,15.4559864 15.5487932,15.3546305 15.4007254,15.1607322 C15.1504203,14.8319864 15.213878,14.3622237 15.5426237,14.1110373 C18.4140814,11.9252746 21.8434373,10.7706983 25.460522,10.7706983 C27.0778102,10.7706983 28.6792339,11.0060203 30.2180814,11.4713763 C30.6138102,11.5912407 30.8385559,12.0098847 30.7186915,12.4056136 C30.5988271,12.8013424 30.1784203,13.0269695 29.7844542,12.9053424 C28.3857424,12.4831729 26.9315051,12.268122 25.460522,12.268122 C22.1739458,12.268122 19.0583525,13.3178169 16.4513017,15.3035119 C16.3146915,15.4057492 16.1560475,15.4559864 15.9974034,15.4559864" id="Fill-7" fill="#010202"></path><path d="M12.0196678,35.9053831 C11.7640746,35.9053831 11.5155322,35.7749424 11.3753966,35.5396203 C9.86915932,33.0136542 9.07241356,30.1157559 9.07241356,27.1579254 C9.07241356,24.2089085 9.8656339,21.3162983 11.3648203,18.7938576 C11.5763458,18.4377898 12.0355322,18.3205695 12.3916,18.5329763 C12.7476678,18.7436203 12.8640068,19.2045695 12.6524814,19.5597559 C11.2907864,21.8512814 10.5707186,24.477722 10.5707186,27.1579254 C10.5707186,29.8451797 11.2943119,32.4777898 12.6621763,34.7719593 C12.8745831,35.1271458 12.7573627,35.5872136 12.4030576,35.7996203 C12.2823119,35.8710102 12.1501085,35.9053831 12.0196678,35.9053831" id="Fill-9" fill="#010202"></path><path d="M38.6815661,36.2625085 C38.5449559,36.2625085 38.4065831,36.2246102 38.2814305,36.1452881 C37.9315322,35.9240678 37.8284136,35.4622373 38.0496339,35.1114576 C39.5541085,32.735322 40.3499729,29.9854915 40.3499729,27.1581017 C40.3499729,26.1260339 40.2433288,25.0948475 40.0344475,24.0936271 C39.9489559,23.6890847 40.2089559,23.2915932 40.6143797,23.2069831 C41.018922,23.1197288 41.4164136,23.3823729 41.5010237,23.7877966 C41.7310576,24.8886102 41.848278,26.0229153 41.848278,27.1581017 C41.848278,30.2692881 40.9722102,33.2967458 39.315261,35.9134915 C39.1724814,36.1382373 38.9301085,36.2625085 38.6815661,36.2625085" id="Fill-11" fill="#010202"></path><path d="M38.5184271,42.8838712 C38.3095458,42.8838712 38.1015458,42.7974983 37.953478,42.6273966 C37.681139,42.3153966 37.7137492,41.8421085 38.0248678,41.5706508 C42.1910373,37.935939 44.5803932,32.6821763 44.5803932,27.1578373 C44.5803932,23.7937017 43.6955119,20.4859729 42.0200542,17.5916 C41.8129356,17.2328881 41.9345627,16.7754644 42.2932746,16.5683458 C42.6493424,16.3585831 43.1094102,16.4828542 43.3165288,16.8406847 C45.1241898,19.9624475 46.0795797,23.5301763 46.0795797,27.1578373 C46.0795797,33.114922 43.5024949,38.780278 39.0111051,42.6996678 C38.8683254,42.823939 38.6929356,42.8838712 38.5184271,42.8838712" id="Fill-13" fill="#010202"></path><path d="M12.0175525,42.5396136 C11.8359932,42.5396136 11.6544339,42.4743932 11.5107729,42.3421898 C7.2723322,38.4457153 4.84067119,32.9116814 4.84067119,27.1581898 C4.84067119,15.7878169 14.0913831,6.5388678 25.4599932,6.5388678 C29.2401288,6.5388678 32.9365356,7.57093559 36.1526034,9.52402034 C36.5060271,9.73907119 36.6188407,10.2000203 36.4037898,10.5534441 C36.1878576,10.9059864 35.7277898,11.0205627 35.3743661,10.8046305 C32.3936203,8.99344407 28.9651458,8.03717288 25.4599932,8.03717288 C14.9172136,8.03717288 6.33985763,16.6145288 6.33985763,27.1581898 C6.33985763,32.4939186 8.59348475,37.6260542 12.5243322,41.2387322 C12.8292814,41.5198847 12.8486712,41.9931729 12.5692814,42.298122 C12.4212136,42.4585288 12.2193831,42.5396136 12.0175525,42.5396136" id="Fill-15" fill="#010202"></path><path d="M38.6858847,48.7856949 C38.4382237,48.7856949 38.1949695,48.6623051 38.0521898,48.436678 C37.8309695,48.0885424 37.9340881,47.6258305 38.2831051,47.4037288 C45.2581559,42.9757966 49.4225627,35.4075932 49.4225627,27.1581017 C49.4225627,23.2669153 48.4680542,19.4030508 46.6639186,15.9842712 C46.4709017,15.6185085 46.6101559,15.1654915 46.9759186,14.9724746 C47.3399186,14.7812203 47.7955797,14.9187119 47.9885966,15.2853559 C49.9064271,18.9174237 50.9208678,23.0245424 50.9208678,27.1581017 C50.9208678,35.9231864 46.496461,43.964678 39.0869017,48.6684746 C38.9617492,48.7477966 38.8233763,48.7856949 38.6858847,48.7856949" id="Fill-17" fill="#010202"></path><g id="Group-21" transform="translate(0.000000, 1.233810)"><mask id="mask-3" fill="white"><use xlink:href="#path-2"></use></mask><g id="Clip-20"></g><path d="M8.71370169,44.8441831 C8.53214237,44.8441831 8.34970169,44.7789627 8.20604068,44.645878 C2.99105763,39.8372 -0.00026440678,33.0137424 -0.00026440678,25.9241153 C-0.00026440678,11.8849966 11.4212271,0.464386441 25.4603458,0.464386441 C29.3947186,0.464386441 33.166922,1.33781017 36.6729559,3.05997966 C37.0440068,3.24242034 37.1964814,3.69103051 37.0140407,4.06296271 C36.8324814,4.43401356 36.3829898,4.58736949 36.011939,4.40404746 C32.7130237,2.78411525 29.1638034,1.96269153 25.4603458,1.96269153 C12.247939,1.96269153 1.49804068,12.7117085 1.49804068,25.9241153 C1.49804068,32.596861 4.31309153,39.0193017 9.22136271,43.5441831 C9.52543051,43.8253356 9.54482034,44.2995051 9.26454915,44.6035729 C9.11736271,44.7630983 8.9155322,44.8441831 8.71370169,44.8441831" id="Fill-19" fill="#010202" mask="url(#mask-3)"></path></g><g id="Group-24" transform="translate(37.898305, 0.352454)"><mask id="mask-5" fill="white"><use xlink:href="#path-4"></use></mask><g id="Clip-23"></g><path d="M2.18699661,12.3785559 L5.43038644,12.3785559 C6.58760678,12.3785559 7.67608136,11.9273017 8.49397966,11.1102847 L11.3257763,8.27760678 L7.03709831,8.27760678 C6.62374237,8.27760678 6.28794576,7.94269153 6.28794576,7.52845424 L6.28794576,3.08642034 L3.45614915,5.91909831 C2.63736949,6.73787797 2.18699661,7.82547119 2.18699661,8.98269153 L2.18699661,12.3785559 Z M5.43038644,13.8759797 L1.43784407,13.8759797 C1.02448814,13.8759797 0.688691525,13.5410644 0.688691525,13.1277085 L0.688691525,8.98269153 C0.688691525,7.42533559 1.29506441,5.96140339 2.39675932,4.85970847 L6.50740339,0.749064407 C6.72245424,0.534013559 7.04503051,0.469674576 7.32442034,0.586013559 C7.60381017,0.702352542 7.7871322,0.975572881 7.7871322,1.27787797 L7.7871322,6.77930169 L13.1343186,6.77930169 C13.4375051,6.77930169 13.7107254,6.96174237 13.8270644,7.24201356 C13.942522,7.52140339 13.8790644,7.84397966 13.6640136,8.05814915 L9.55336949,12.1687932 C8.45167458,13.2704881 6.98774237,13.8759797 5.43038644,13.8759797 L5.43038644,13.8759797 Z" id="Fill-22" fill="#010202" mask="url(#mask-5)"></path></g><path d="M29.6696136,28.4947661 L25.0195797,28.4947661 C24.6062237,28.4947661 24.2704271,28.1598508 24.2704271,27.7456136 L24.2704271,23.0955797 C24.2704271,22.6813424 24.6062237,22.3464271 25.0195797,22.3464271 C25.4329356,22.3464271 25.7687322,22.6813424 25.7687322,23.0955797 L25.7687322,26.9973424 L29.6696136,26.9973424 C30.0829695,26.9973424 30.4187661,27.3322576 30.4187661,27.7456136 C30.4187661,28.1598508 30.0829695,28.4947661 29.6696136,28.4947661" id="Fill-25" fill="#010202"></path><path d="M35.7426847,41.9974034 L15.1154305,41.9974034 C14.7020746,41.9974034 14.366278,41.6624881 14.366278,41.2482508 C14.366278,40.8348949 14.7020746,40.4999797 15.1154305,40.4999797 L35.7426847,40.4999797 C36.1560407,40.4999797 36.4918373,40.8348949 36.4918373,41.2482508 C36.4918373,41.6624881 36.1560407,41.9974034 35.7426847,41.9974034" id="Fill-27" fill="#010202"></path><path d="M20.9098169,41.9974034 C20.496461,41.9974034 20.1606644,41.6624881 20.1606644,41.2482508 L20.1606644,35.7071661 L17.5315797,35.7071661 L17.5315797,41.2482508 C17.5315797,41.6624881 17.1966644,41.9974034 16.7824271,41.9974034 C16.3690712,41.9974034 16.0332746,41.6624881 16.0332746,41.2482508 L16.0332746,34.9588949 C16.0332746,34.5446576 16.3690712,34.2097424 16.7824271,34.2097424 L20.9098169,34.2097424 C21.3231729,34.2097424 21.6589695,34.5446576 21.6589695,34.9588949 L21.6589695,41.2482508 C21.6589695,41.6624881 21.3231729,41.9974034 20.9098169,41.9974034" id="Fill-29" fill="#010202"></path><path d="M33.6679729,41.9974034 C33.2546169,41.9974034 32.9188203,41.6624881 32.9188203,41.2482508 L32.9188203,37.6020814 L30.2897356,37.6020814 L30.2897356,41.2482508 C30.2897356,41.6624881 29.9548203,41.9974034 29.5405831,41.9974034 C29.1272271,41.9974034 28.7914305,41.6624881 28.7914305,41.2482508 L28.7914305,36.8529288 C28.7914305,36.4386915 29.1272271,36.1037763 29.5405831,36.1037763 L33.6679729,36.1037763 C34.0813288,36.1037763 34.4171254,36.4386915 34.4171254,36.8529288 L34.4171254,41.2482508 C34.4171254,41.6624881 34.0813288,41.9974034 33.6679729,41.9974034" id="Fill-31" fill="#010202"></path><path d="M27.2888949,41.9974034 C26.875539,41.9974034 26.5397424,41.6624881 26.5397424,41.2482508 L26.5397424,31.6934712 L23.9106576,31.6934712 L23.9106576,41.2482508 C23.9106576,41.6624881 23.5757424,41.9974034 23.1615051,41.9974034 C22.7481492,41.9974034 22.4123525,41.6624881 22.4123525,41.2482508 L22.4123525,30.9443186 C22.4123525,30.5300814 22.7481492,30.1951661 23.1615051,30.1951661 L27.2888949,30.1951661 C27.7022508,30.1951661 28.0380475,30.5300814 28.0380475,30.9443186 L28.0380475,41.2482508 C28.0380475,41.6624881 27.7022508,41.9974034 27.2888949,41.9974034" id="Fill-33" fill="#010202"></path></g></g></g></svg> 